<svg width="312" height="282" viewBox="0 0 312 282" fill="none" xmlns="http://www.w3.org/2000/svg">
<g clip-path="url(#clip0_10_26)">
<path d="M136.231 233.228H6.17582C4.53845 233.226 2.96868 232.575 1.81089 231.417C0.653101 230.26 0.00184274 228.69 0 227.052V50.4965C0.00184274 48.8591 0.653101 47.2893 1.81089 46.1316C2.96868 44.9738 4.53846 44.3225 6.17582 44.3207H136.231C137.869 44.3225 139.439 44.9738 140.596 46.1316C141.754 47.2893 142.405 48.8591 142.407 50.4965V227.052C142.405 228.69 141.754 230.26 140.596 231.417C139.439 232.575 137.869 233.226 136.231 233.228Z" fill="white"/>
<path d="M65.3408 90.2698C65.3408 95.3689 63.7277 100.337 60.7324 104.464C57.737 108.591 53.5129 111.664 48.6648 113.244C48.5198 113.29 48.3749 113.336 48.2277 113.38C47.5997 113.573 46.9629 113.738 46.3151 113.878C45.1427 114.133 43.9528 114.298 42.7554 114.373C42.2351 114.408 41.7117 114.425 41.1854 114.425C38.4659 114.428 35.7656 113.971 33.1987 113.073C33.124 113.046 33.0494 113.02 32.9769 112.994C28.818 111.491 25.1511 108.877 22.3758 105.434C19.6005 101.992 17.8233 97.8535 17.2379 93.4706C16.6524 89.0876 17.2812 84.628 19.0557 80.5778C20.8302 76.5276 23.6823 73.0421 27.3012 70.5012C30.9201 67.9602 35.167 66.4613 39.5791 66.1677C43.9912 65.8741 48.3993 66.7971 52.323 68.8362C56.2466 70.8753 59.5354 73.9522 61.8308 77.7316C64.1263 81.511 65.3404 85.8479 65.3408 90.2698Z" fill="white"/>
<path d="M40.6066 106.274C47.0974 106.274 52.3591 101.012 52.3591 94.5212C52.3591 88.0305 47.0974 82.7687 40.6066 82.7687C34.1159 82.7687 28.8541 88.0305 28.8541 94.5212C28.8541 101.012 34.1159 106.274 40.6066 106.274Z" fill="#6C63FF"/>
<path d="M41.2927 100.853L41.3049 100.414C40.4879 100.392 39.7675 100.34 39.2263 99.9448C39.0728 99.8264 38.9467 99.6762 38.8565 99.5046C38.7662 99.333 38.714 99.144 38.7033 98.9504C38.6938 98.8322 38.7117 98.7133 38.7556 98.603C38.7995 98.4928 38.8683 98.3942 38.9565 98.3148C39.161 98.1909 39.3951 98.1243 39.6343 98.1222C39.8734 98.1201 40.1087 98.1825 40.3153 98.3028L40.6787 98.4694L39.9819 93.3769L39.5468 93.4366L40.1395 97.7684C39.8969 97.6784 39.6356 97.6505 39.3794 97.6874C39.1233 97.7242 38.8804 97.8246 38.673 97.9794C38.5335 98.1012 38.424 98.2537 38.3531 98.4248C38.2823 98.5959 38.2519 98.7811 38.2645 98.9659C38.2773 99.226 38.3468 99.4801 38.4682 99.7105C38.5896 99.9409 38.7599 100.142 38.9672 100.3C39.6627 100.808 40.5665 100.833 41.2927 100.853Z" fill="#2F2E41"/>
<path d="M37.3949 93.8101H35.0295V94.2493H37.3949V93.8101Z" fill="#2F2E41"/>
<path d="M44.8612 93.8101H42.4958V94.2493H44.8612V93.8101Z" fill="#2F2E41"/>
<path d="M43.9456 110.951C43.9768 110.807 43.993 110.66 43.994 110.512C43.9931 109.959 43.773 109.429 43.382 109.038C42.9909 108.647 42.4608 108.427 41.9078 108.426H38.8335C38.2803 108.426 37.75 108.646 37.3589 109.037C36.9678 109.429 36.7478 109.959 36.7473 110.512C36.7472 110.661 36.7634 110.809 36.7956 110.953C35.635 111.319 34.538 111.862 33.5434 112.563C33.3501 112.697 33.1591 112.842 32.9769 112.993C33.0494 113.02 33.124 113.046 33.1986 113.073C35.7655 113.971 38.4658 114.428 41.1853 114.425C41.7123 114.425 42.2357 114.408 42.7554 114.373C43.9527 114.298 45.1427 114.133 46.315 113.878C46.9629 113.738 47.5997 113.573 48.2277 113.38C46.9852 112.281 45.5266 111.454 43.9456 110.951Z" fill="#2F2E41"/>
<path d="M43.5503 114.094C43.2653 114.115 42.991 114.211 42.7554 114.373C43.9527 114.298 45.1426 114.133 46.315 113.878L43.5503 114.094Z" fill="#2F2E41"/>
<path d="M51.2654 91.7293L30.8488 84.2604C30.63 84.1803 30.452 84.0166 30.3539 83.8054C30.2558 83.5941 30.2456 83.3524 30.3257 83.1337L30.3948 82.8071C31.9892 78.4485 37.2742 75.7055 41.6328 77.3L47.9154 79.5984C52.274 81.1929 54.1683 86.354 52.5738 90.7125L52.3921 91.2062C52.312 91.425 52.1484 91.603 51.9371 91.7011C51.7258 91.7992 51.4842 91.8094 51.2654 91.7293Z" fill="#2F2E41"/>
<path d="M52.3652 92.1438C23.9085 93.1938 21.4219 89.6183 30.0925 83.9958L31.9319 80.6112L53.0131 88.297L52.3652 92.1438Z" fill="#2F2E41"/>
<path d="M46.7854 79.0624C46.9425 78.5397 46.2696 77.8754 45.2823 77.5787C44.2951 77.2819 43.3674 77.4651 43.2103 77.9877C43.0532 78.5104 43.7262 79.1746 44.7134 79.4714C45.7006 79.7681 46.6283 79.585 46.7854 79.0624Z" fill="#2F2E41"/>
<path d="M41.1853 115.084C38.3917 115.087 35.6176 114.617 32.9808 113.694L32.7516 113.613C27.2283 111.617 22.592 107.726 19.6672 102.633C16.7424 97.5407 15.7187 91.5757 16.7782 85.7991C17.8376 80.0226 20.9115 74.8091 25.4532 71.0857C29.9949 67.3624 35.71 65.3705 41.5821 65.4644C47.4542 65.5584 53.1027 67.7319 57.523 71.5986C61.9434 75.4653 64.8489 80.7745 65.7231 86.582C66.5973 92.3894 65.3833 98.3187 62.2972 103.315C59.211 108.312 54.4527 112.052 48.8684 113.87C48.7123 113.92 48.5654 113.967 48.4162 114.011C47.7925 114.203 47.1307 114.376 46.4546 114.522C45.2496 114.783 44.0265 114.953 42.7959 115.03C42.2672 115.066 41.724 115.084 41.1853 115.084ZM41.1853 66.7731C35.6562 66.7739 30.3044 68.7243 26.0712 72.2811C21.838 75.838 18.9945 80.7736 18.0408 86.2199C17.0872 91.6662 18.0845 97.2743 20.8572 102.058C23.63 106.842 28.0007 110.494 33.2006 112.374L33.4182 112.451C35.9145 113.325 38.5406 113.77 41.1853 113.766C41.6945 113.766 42.2078 113.749 42.711 113.715C43.8763 113.643 45.0346 113.482 46.1757 113.235C46.8152 113.096 47.4405 112.933 48.034 112.75C48.1809 112.706 48.3204 112.662 48.46 112.618C53.7786 110.885 58.305 107.313 61.2253 102.542C64.1455 97.7708 65.2683 92.1147 64.3916 86.5902C63.515 81.0656 60.6965 76.0349 56.4427 72.4024C52.189 68.77 46.779 66.7739 41.1853 66.7731Z" fill="#CCCCCC"/>
<path d="M136.231 233.228H6.17582C4.53845 233.226 2.96868 232.575 1.81089 231.417C0.653101 230.26 0.00184274 228.69 0 227.052V50.4965C0.00184274 48.8591 0.653101 47.2893 1.81089 46.1316C2.96868 44.9738 4.53846 44.3225 6.17582 44.3207H136.231C137.869 44.3225 139.439 44.9738 140.596 46.1316C141.754 47.2893 142.405 48.8591 142.407 50.4965V227.052C142.405 228.69 141.754 230.26 140.596 231.417C139.439 232.575 137.869 233.226 136.231 233.228ZM6.17582 45.0472C4.73109 45.0489 3.34601 45.6235 2.32443 46.6451C1.30285 47.6667 0.728206 49.0518 0.726568 50.4965V227.052C0.728205 228.497 1.30284 229.882 2.32442 230.904C3.346 231.925 4.73109 232.5 6.17582 232.502H136.231C137.676 232.5 139.061 231.925 140.083 230.904C141.104 229.882 141.679 228.497 141.681 227.052V50.4965C141.679 49.0518 141.104 47.6667 140.083 46.6451C139.061 45.6235 137.676 45.0489 136.231 45.0472H6.17582Z" fill="#CCCCCC"/>
<path d="M111.054 90.1758H74.253C73.4814 90.1748 72.7418 89.8677 72.1966 89.3218C71.6514 88.7759 71.3452 88.0359 71.3452 87.2644C71.3452 86.4929 71.6514 85.7529 72.1966 85.207C72.7418 84.6611 73.4814 84.3539 74.253 84.353H111.054C111.437 84.3525 111.816 84.4275 112.169 84.5736C112.523 84.7197 112.844 84.934 113.115 85.2044C113.386 85.4748 113.601 85.7959 113.747 86.1494C113.894 86.5029 113.969 86.8817 113.969 87.2644C113.969 87.647 113.894 88.0259 113.747 88.3794C113.601 88.7328 113.386 89.0539 113.115 89.3243C112.844 89.5947 112.523 89.8091 112.169 89.9552C111.816 90.1013 111.437 90.1762 111.054 90.1758Z" fill="#E6E6E6"/>
<path d="M123.064 100.002H74.253C73.4814 100.001 72.7418 99.6936 72.1966 99.1477C71.6514 98.6019 71.3452 97.8619 71.3452 97.0904C71.3452 96.3188 71.6514 95.5789 72.1966 95.033C72.7418 94.4871 73.4814 94.1799 74.253 94.179H123.064C123.835 94.1799 124.575 94.4871 125.12 95.033C125.665 95.5789 125.972 96.3188 125.972 97.0904C125.972 97.8619 125.665 98.6019 125.12 99.1477C124.575 99.6936 123.835 100.001 123.064 100.002Z" fill="#E6E6E6"/>
<path d="M111.001 137.688H19.3435C18.9609 137.689 18.5819 137.614 18.2283 137.468C17.8746 137.322 17.5533 137.107 17.2825 136.837C17.0118 136.567 16.797 136.245 16.6505 135.892C16.5039 135.539 16.4285 135.16 16.4285 134.777C16.4285 134.394 16.5039 134.015 16.6505 133.662C16.797 133.309 17.0118 132.987 17.2825 132.717C17.5533 132.447 17.8746 132.232 18.2283 132.086C18.5819 131.94 18.9609 131.865 19.3435 131.866H111.001C111.772 131.867 112.512 132.174 113.057 132.72C113.602 133.266 113.908 134.005 113.908 134.777C113.908 135.549 113.602 136.289 113.057 136.834C112.512 137.38 111.772 137.687 111.001 137.688Z" fill="#E6E6E6"/>
<path d="M123.01 147.514H19.3435C18.9609 147.515 18.5819 147.44 18.2283 147.294C17.8746 147.148 17.5533 146.933 17.2825 146.663C17.0118 146.393 16.797 146.071 16.6505 145.718C16.5039 145.364 16.4285 144.986 16.4285 144.603C16.4285 144.22 16.5039 143.841 16.6505 143.488C16.797 143.135 17.0118 142.813 17.2825 142.543C17.5533 142.273 17.8746 142.058 18.2283 141.912C18.5819 141.766 18.9609 141.691 19.3435 141.692H123.01C123.393 141.691 123.772 141.766 124.125 141.912C124.479 142.058 124.8 142.273 125.071 142.543C125.342 142.813 125.557 143.135 125.703 143.488C125.85 143.841 125.925 144.22 125.925 144.603C125.925 144.986 125.85 145.364 125.703 145.718C125.557 146.071 125.342 146.393 125.071 146.663C124.8 146.933 124.479 147.148 124.125 147.294C123.772 147.44 123.393 147.515 123.01 147.514Z" fill="#E6E6E6"/>
<path d="M111.001 170.098H19.3436C18.5714 170.098 17.8309 169.791 17.2849 169.245C16.7389 168.699 16.4322 167.959 16.4322 167.187C16.4322 166.415 16.7389 165.674 17.2849 165.128C17.8309 164.582 18.5714 164.275 19.3436 164.275H111.001C111.773 164.275 112.513 164.582 113.059 165.128C113.605 165.674 113.912 166.415 113.912 167.187C113.912 167.959 113.605 168.699 113.059 169.245C112.513 169.791 111.773 170.098 111.001 170.098Z" fill="#E6E6E6"/>
<path d="M123.01 179.924H19.3436C18.5714 179.924 17.8309 179.617 17.2849 179.071C16.7389 178.525 16.4322 177.785 16.4322 177.013C16.4322 176.241 16.7389 175.5 17.2849 174.954C17.8309 174.408 18.5714 174.101 19.3436 174.101H123.01C123.782 174.101 124.523 174.408 125.069 174.954C125.615 175.5 125.922 176.241 125.922 177.013C125.922 177.785 125.615 178.525 125.069 179.071C124.523 179.617 123.782 179.924 123.01 179.924Z" fill="#E6E6E6"/>
<path d="M111.001 202.508H19.3436C18.5714 202.508 17.8309 202.201 17.2849 201.655C16.7389 201.109 16.4322 200.369 16.4322 199.597C16.4322 198.824 16.7389 198.084 17.2849 197.538C17.8309 196.992 18.5714 196.685 19.3436 196.685H111.001C111.773 196.685 112.513 196.992 113.059 197.538C113.605 198.084 113.912 198.824 113.912 199.597C113.912 200.369 113.605 201.109 113.059 201.655C112.513 202.201 111.773 202.508 111.001 202.508Z" fill="#E6E6E6"/>
<path d="M123.01 212.334H19.3436C18.5714 212.334 17.8309 212.027 17.2849 211.481C16.7389 210.935 16.4322 210.195 16.4322 209.423C16.4322 208.65 16.7389 207.91 17.2849 207.364C17.8309 206.818 18.5714 206.511 19.3436 206.511H123.01C123.782 206.511 124.523 206.818 125.069 207.364C125.615 207.91 125.922 208.65 125.922 209.423C125.922 210.195 125.615 210.935 125.069 211.481C124.523 212.027 123.782 212.334 123.01 212.334Z" fill="#E6E6E6"/>
<path d="M305.522 188.908L175.466 188.908C173.829 188.906 172.259 188.255 171.101 187.097C169.943 185.939 169.292 184.369 169.29 182.732L169.29 6.17593C169.292 4.53857 169.943 2.9688 171.101 1.811C172.259 0.653208 173.829 0.00194614 175.466 0.000102214L305.522 0C307.159 0.00184156 308.729 0.653094 309.886 1.81089C311.044 2.96868 311.696 4.53845 311.697 6.17582L311.698 182.732C311.696 184.369 311.044 185.939 309.887 187.097C308.729 188.254 307.159 188.906 305.522 188.908Z" fill="white"/>
<path d="M305.522 188.908L175.466 188.908C173.829 188.906 172.259 188.255 171.101 187.097C169.943 185.939 169.292 184.369 169.29 182.732L169.29 6.17593C169.292 4.53857 169.943 2.9688 171.101 1.811C172.259 0.653208 173.829 0.00194614 175.466 0.000102214L305.522 0C307.159 0.00184156 308.729 0.653094 309.886 1.81089C311.044 2.96868 311.696 4.53845 311.697 6.17582L311.698 182.732C311.696 184.369 311.044 185.939 309.887 187.097C308.729 188.254 307.159 188.906 305.522 188.908ZM175.466 0.72667C174.021 0.728308 172.636 1.30295 171.615 2.32453C170.593 3.34611 170.018 4.7312 170.017 6.17593L170.017 182.732C170.019 184.177 170.593 185.562 171.615 186.583C172.636 187.605 174.021 188.179 175.466 188.181L305.522 188.181C306.966 188.179 308.352 187.605 309.373 186.583C310.395 185.562 310.969 184.176 310.971 182.732L310.971 6.17583C310.969 4.73109 310.395 3.346 309.373 2.32442C308.351 1.30285 306.966 0.728204 305.522 0.726568L175.466 0.72667Z" fill="#CCCCCC"/>
<path d="M234.692 45.7085C234.692 50.486 233.275 55.1562 230.621 59.1286C227.967 63.1009 224.194 66.197 219.78 68.0252C215.367 69.8535 210.51 70.3319 205.824 69.3998C201.138 68.4678 196.834 66.1672 193.456 62.789C190.078 59.4108 187.777 55.1067 186.845 50.421C185.913 45.7353 186.392 40.8785 188.22 36.4646C190.048 32.0508 193.144 28.2783 197.116 25.624C201.089 22.9698 205.759 21.5531 210.536 21.5531C216.942 21.5551 223.085 24.1007 227.615 28.6303C232.144 33.1598 234.69 39.3027 234.692 45.7085Z" fill="white"/>
<path d="M221.701 49.8418C221.437 65.2904 198.457 65.2881 198.196 49.8413C198.46 34.3931 221.439 34.3955 221.701 49.8418Z" fill="#6C63FF"/>
<path d="M209.482 54.6368L209.47 54.1977C212.497 54.6018 213.148 50.8503 210.096 52.2528L210.793 47.1603L211.228 47.2199L210.635 51.5518C213.849 51.0733 212.66 55.0758 209.482 54.6368Z" fill="#2F2E41"/>
<path d="M215.745 47.5935H213.38V48.0327H215.745V47.5935Z" fill="#2F2E41"/>
<path d="M208.279 47.5935H205.913V48.0327H208.279V47.5935Z" fill="#2F2E41"/>
<path d="M213.758 66.2736C214.219 63.1619 210.576 63.7768 208.648 63.7461C208.337 63.747 208.03 63.8173 207.75 63.9518C207.47 64.0863 207.223 64.2817 207.028 64.5236C206.833 64.7655 206.694 65.048 206.622 65.3503C206.549 65.6527 206.545 65.9673 206.61 66.2714C205.118 66.7327 203.736 67.495 202.55 68.5113C207.548 70.2543 212.98 70.3144 218.016 68.6825C216.788 67.5801 215.335 66.7581 213.758 66.2736Z" fill="#2F2E41"/>
<path d="M204.423 44.2831C206.601 43.0244 209.242 43.9901 211.492 44.518C215.761 45.8302 221.746 44.1871 222.266 39.1023C222.806 34.3733 216.337 31.7377 214.269 36.4444L214.871 36.3657C208.165 26.4 196.501 26.778 196.578 40.479C196.553 40.9023 197.212 40.9009 197.236 40.4788C196.989 32.405 202.333 26.8859 209.886 32.0745C211.573 33.3951 213.06 34.9524 214.302 36.6982C215.089 37.5797 215.26 33.7832 219.025 34.7776C223.168 36.3828 221.816 42.316 218.113 43.6185C213.537 45.9563 208.581 41.4235 204.09 43.714C204.018 43.7597 203.966 43.8316 203.946 43.9146C203.926 43.9977 203.939 44.0854 203.982 44.1592C204.025 44.233 204.095 44.2872 204.177 44.3103C204.26 44.3334 204.348 44.3237 204.423 44.2831Z" fill="#2F2E41"/>
<path d="M210.537 70.5228C204.299 70.5175 198.292 68.1611 193.714 63.9234C189.137 59.6857 186.325 53.8783 185.839 47.6593C185.354 41.4403 187.23 35.2668 191.095 30.37C194.959 25.4732 200.527 22.2131 206.689 21.2398C212.85 20.2665 219.152 21.6515 224.338 25.1187C229.524 28.5858 233.212 33.8803 234.667 39.9461C236.122 46.012 235.237 52.4034 232.188 57.8458C229.14 63.2881 224.152 67.3813 218.22 69.3091C215.739 70.116 213.146 70.5256 210.537 70.5228ZM210.537 22.2119C205.888 22.2112 201.344 23.589 197.479 26.171C193.614 28.7529 190.602 32.4231 188.823 36.7173C187.044 41.0115 186.578 45.7368 187.485 50.2957C188.391 54.8545 190.629 59.0422 193.916 62.3289C197.203 65.6156 201.39 67.8538 205.949 68.7605C210.508 69.6671 215.234 69.2015 219.528 67.4224C223.822 65.6433 227.492 62.6307 230.074 58.7657C232.656 54.9006 234.034 50.3567 234.033 45.7085C234.026 39.479 231.548 33.5066 227.143 29.1017C222.738 24.6967 216.766 22.2189 210.537 22.2119Z" fill="#CCCCCC"/>
<path d="M280.344 45.8551L243.543 45.8552C242.771 45.8552 242.03 45.5484 241.484 45.0024C240.938 44.4564 240.632 43.7159 240.632 42.9438C240.632 42.1716 240.938 41.4311 241.484 40.8851C242.03 40.3391 242.771 40.0324 243.543 40.0324L280.344 40.0323C281.116 40.0323 281.857 40.3391 282.403 40.8851C282.949 41.4311 283.256 42.1716 283.256 42.9437C283.256 43.7159 282.949 44.4564 282.403 45.0024C281.857 45.5484 281.116 45.8551 280.344 45.8551Z" fill="#E6E6E6"/>
<path d="M292.354 55.6811L243.543 55.6811C243.161 55.6816 242.782 55.6067 242.428 55.4606C242.074 55.3145 241.753 55.1001 241.482 54.8297C241.211 54.5593 240.997 54.2382 240.85 53.8847C240.704 53.5313 240.628 53.1524 240.628 52.7697C240.628 52.3871 240.704 52.0082 240.85 51.6548C240.997 51.3013 241.211 50.9802 241.482 50.7098C241.753 50.4394 242.074 50.225 242.428 50.0789C242.782 49.9328 243.161 49.8579 243.543 49.8583L292.354 49.8583C293.126 49.8583 293.867 50.165 294.413 50.711C294.959 51.257 295.265 51.9976 295.265 52.7697C295.265 53.5419 294.959 54.2824 294.413 54.8284C293.867 55.3744 293.126 55.6811 292.354 55.6811Z" fill="#E6E6E6"/>
<path d="M280.291 93.3678L188.634 93.3679C187.862 93.3669 187.123 93.0597 186.577 92.5139C186.032 91.968 185.726 91.228 185.726 90.4565C185.726 89.6849 186.032 88.9449 186.577 88.3991C187.123 87.8532 187.862 87.546 188.634 87.5451L280.291 87.545C281.063 87.545 281.804 87.8517 282.35 88.3977C282.896 88.9437 283.202 89.6842 283.202 90.4564C283.202 91.2285 282.896 91.9691 282.35 92.5151C281.804 93.0611 281.063 93.3678 280.291 93.3678Z" fill="#E6E6E6"/>
<path d="M292.3 103.194L188.634 103.194C188.251 103.194 187.872 103.119 187.518 102.973C187.165 102.827 186.843 102.613 186.573 102.342C186.302 102.072 186.087 101.751 185.941 101.397C185.794 101.044 185.719 100.665 185.719 100.282C185.719 99.8998 185.794 99.5209 185.941 99.1674C186.087 98.814 186.302 98.4928 186.573 98.2225C186.843 97.9521 187.165 97.7377 187.518 97.5916C187.872 97.4455 188.251 97.3705 188.634 97.371L292.3 97.3709C293.072 97.3709 293.813 97.6776 294.359 98.2236C294.905 98.7696 295.212 99.5102 295.212 100.282C295.212 101.054 294.905 101.795 294.359 102.341C293.813 102.887 293.072 103.194 292.3 103.194Z" fill="#E6E6E6"/>
<path d="M280.291 125.778L188.634 125.778C187.862 125.777 187.123 125.47 186.577 124.924C186.032 124.378 185.726 123.638 185.726 122.866C185.726 122.095 186.032 121.355 186.577 120.809C187.123 120.263 187.862 119.956 188.634 119.955L280.291 119.955C281.063 119.955 281.804 120.262 282.35 120.808C282.896 121.354 283.202 122.094 283.202 122.866C283.202 123.638 282.896 124.379 282.35 124.925C281.804 125.471 281.063 125.778 280.291 125.778Z" fill="#E6E6E6"/>
<path d="M292.3 135.604L188.634 135.604C188.251 135.604 187.872 135.529 187.518 135.383C187.165 135.237 186.843 135.023 186.573 134.752C186.302 134.482 186.087 134.161 185.941 133.807C185.794 133.454 185.719 133.075 185.719 132.692C185.719 132.31 185.794 131.931 185.941 131.577C186.087 131.224 186.302 130.903 186.573 130.632C186.843 130.362 187.165 130.148 187.518 130.001C187.872 129.855 188.251 129.78 188.634 129.781L292.3 129.781C293.073 129.781 293.813 130.087 294.359 130.633C294.905 131.179 295.212 131.92 295.212 132.692C295.212 133.464 294.905 134.205 294.359 134.751C293.813 135.297 293.073 135.604 292.3 135.604Z" fill="#E6E6E6"/>
<path d="M280.291 158.187L188.634 158.187C187.862 158.187 187.121 157.881 186.575 157.335C186.029 156.789 185.722 156.048 185.722 155.276C185.722 154.504 186.029 153.763 186.575 153.217C187.121 152.671 187.862 152.365 188.634 152.365L280.291 152.365C281.063 152.365 281.804 152.671 282.35 153.217C282.896 153.763 283.202 154.504 283.202 155.276C283.202 156.048 282.896 156.789 282.35 157.335C281.804 157.881 281.063 158.187 280.291 158.187Z" fill="#E6E6E6"/>
<path d="M292.3 168.013L188.634 168.013C187.862 168.013 187.121 167.707 186.575 167.161C186.029 166.615 185.722 165.874 185.722 165.102C185.722 164.33 186.029 163.589 186.575 163.043C187.121 162.497 187.862 162.191 188.634 162.191L292.3 162.191C293.073 162.191 293.813 162.497 294.359 163.043C294.905 163.589 295.212 164.33 295.212 165.102C295.212 165.874 294.905 166.615 294.359 167.161C293.813 167.707 293.073 168.013 292.3 168.013Z" fill="#E6E6E6"/>
<path d="M227.052 264.834H96.9967C95.3594 264.832 93.7896 264.181 92.6318 263.023C91.474 261.865 90.8228 260.295 90.8209 258.658V82.1022C90.8228 80.4648 91.474 78.895 92.6318 77.7372C93.7896 76.5794 95.3594 75.9282 96.9967 75.9263H227.052C228.69 75.9282 230.259 76.5794 231.417 77.7372C232.575 78.895 233.226 80.4648 233.228 82.1022V258.658C233.226 260.295 232.575 261.865 231.417 263.023C230.259 264.181 228.69 264.832 227.052 264.834Z" fill="white"/>
<path d="M107.844 121.379C107.84 124.558 108.465 127.707 109.684 130.643C110.903 133.58 112.691 136.246 114.945 138.488C115.134 138.674 115.328 138.861 115.523 139.043C116.7 140.143 117.985 141.122 119.357 141.966C119.621 142.128 119.884 142.284 120.154 142.436C121.542 143.218 123.005 143.86 124.52 144.353C124.781 144.439 125.047 144.52 125.312 144.594C130.129 145.976 135.255 145.832 139.986 144.182C140.078 144.149 140.17 144.116 140.26 144.083C144.414 142.572 148.073 139.951 150.839 136.504C153.606 133.058 155.374 128.919 155.952 124.537C156.529 120.156 155.894 115.7 154.114 111.654C152.335 107.609 149.48 104.129 145.86 101.594C142.24 99.0586 137.994 97.5649 133.584 97.2754C129.174 96.9859 124.769 97.9116 120.849 99.9519C116.928 101.992 113.643 105.069 111.35 108.847C109.057 112.625 107.844 116.959 107.844 121.379Z" fill="white"/>
<path d="M126.898 133.219C126.91 135.09 126.22 136.898 124.965 138.286C123.723 139.649 121.874 140.553 120.008 140.179C118.29 139.835 116.893 138.333 117.068 136.516C117.096 136.123 117.211 135.74 117.403 135.395C117.595 135.051 117.859 134.752 118.178 134.52C118.498 134.288 118.864 134.129 119.251 134.052C119.638 133.976 120.037 133.986 120.42 134.08C122.052 134.503 122.703 136.856 121.342 137.96C121.016 138.225 120.547 137.761 120.877 137.494C121.08 137.308 121.233 137.074 121.322 136.814C121.412 136.554 121.434 136.275 121.388 136.004C121.342 135.733 121.229 135.477 121.058 135.261C120.888 135.045 120.666 134.875 120.413 134.767C120.114 134.671 119.798 134.645 119.487 134.69C119.177 134.734 118.881 134.849 118.621 135.025C118.362 135.201 118.146 135.434 117.99 135.706C117.833 135.978 117.741 136.282 117.72 136.595C117.612 138.127 118.785 139.28 120.224 139.551C121.781 139.845 123.324 139.049 124.378 137.949C125.587 136.672 126.254 134.977 126.239 133.219C126.242 133.133 126.278 133.052 126.34 132.993C126.401 132.933 126.483 132.9 126.569 132.9C126.654 132.9 126.736 132.933 126.798 132.993C126.859 133.052 126.895 133.133 126.898 133.219Z" fill="#2F2E41"/>
<path d="M133.331 137.406C139.822 137.406 145.083 132.145 145.083 125.654C145.083 119.163 139.822 113.901 133.331 113.901C126.84 113.901 121.578 119.163 121.578 125.654C121.578 132.145 126.84 137.406 133.331 137.406Z" fill="#6C63FF"/>
<path d="M132.729 130.669L132.717 130.229C133.534 130.207 134.255 130.155 134.796 129.76C134.949 129.642 135.076 129.491 135.166 129.32C135.256 129.148 135.308 128.959 135.319 128.766C135.328 128.647 135.311 128.528 135.267 128.418C135.223 128.308 135.154 128.209 135.066 128.13C134.861 128.006 134.627 127.939 134.388 127.937C134.149 127.935 133.914 127.998 133.707 128.118L133.343 128.285L134.04 123.192L134.475 123.252L133.883 127.584C134.125 127.494 134.387 127.466 134.643 127.503C134.899 127.539 135.142 127.64 135.349 127.795C135.489 127.916 135.598 128.069 135.669 128.24C135.74 128.411 135.77 128.596 135.758 128.781C135.745 129.041 135.675 129.295 135.554 129.526C135.433 129.756 135.262 129.957 135.055 130.115C134.36 130.623 133.456 130.648 132.729 130.669Z" fill="#2F2E41"/>
<path d="M138.993 123.625H136.627V124.064H138.993V123.625Z" fill="#2F2E41"/>
<path d="M131.526 123.625H129.161V124.064H131.526V123.625Z" fill="#2F2E41"/>
<path d="M125.312 144.594C130.129 145.976 135.255 145.832 139.986 144.182C140.078 144.149 140.17 144.116 140.26 144.083C139.145 143.223 137.885 142.571 136.538 142.159C136.633 141.822 136.632 141.464 136.534 141.127C136.401 140.7 136.133 140.328 135.771 140.065C135.409 139.802 134.972 139.663 134.524 139.669H131.661C131.214 139.663 130.778 139.801 130.417 140.064C130.055 140.326 129.789 140.698 129.656 141.125C129.558 141.462 129.556 141.821 129.652 142.159C128.466 142.522 127.345 143.072 126.331 143.786C126.127 143.929 125.93 144.078 125.739 144.234C125.594 144.351 125.451 144.472 125.312 144.594Z" fill="#2F2E41"/>
<path d="M142.538 124.407C142.538 126.388 143.513 128.03 144.78 128.316C144.909 128.345 145.041 128.36 145.173 128.36C146.624 128.36 147.808 126.588 147.808 124.407C147.841 123.283 147.482 122.182 146.793 121.293C146.579 121.034 146.316 120.82 146.018 120.663C145.757 120.527 145.467 120.455 145.173 120.454C144.768 120.459 144.376 120.592 144.051 120.832C143.157 121.465 142.538 122.828 142.538 124.407Z" fill="#3F3D56"/>
<path d="M119.041 124.407C119.041 126.111 119.761 127.565 120.771 128.12C121.048 128.275 121.359 128.358 121.676 128.36C121.747 128.36 121.817 128.355 121.887 128.347C123.24 128.186 124.311 126.482 124.311 124.407C124.311 122.745 123.624 121.32 122.653 120.738C122.36 120.555 122.022 120.457 121.676 120.454C121.382 120.455 121.092 120.527 120.831 120.663C120.532 120.821 120.268 121.035 120.053 121.295C119.367 122.185 119.009 123.284 119.041 124.407Z" fill="#3F3D56"/>
<path d="M120.936 127.742C120.988 127.742 121.039 127.729 121.086 127.705C121.132 127.681 121.173 127.647 121.203 127.604C121.234 127.562 121.254 127.513 121.261 127.461C121.269 127.409 121.264 127.356 121.248 127.307C120.618 125.435 120.429 123.443 120.694 121.485C120.96 119.528 121.673 117.659 122.779 116.022C123.884 114.385 125.352 113.026 127.069 112.048C128.785 111.071 130.704 110.503 132.676 110.388C134.647 110.273 136.619 110.614 138.438 111.385C140.256 112.156 141.872 113.336 143.161 114.833C144.449 116.33 145.375 118.104 145.866 120.017C146.357 121.93 146.401 123.93 145.993 125.863C145.976 125.948 145.992 126.037 146.04 126.11C146.088 126.184 146.162 126.235 146.248 126.253C146.333 126.271 146.422 126.254 146.495 126.207C146.569 126.159 146.62 126.084 146.638 125.999C147.067 123.967 147.021 121.864 146.505 119.852C145.988 117.841 145.015 115.976 143.661 114.402C142.306 112.827 140.607 111.587 138.695 110.776C136.783 109.966 134.71 109.607 132.637 109.728C130.564 109.849 128.546 110.447 126.742 111.474C124.937 112.502 123.394 113.931 122.231 115.652C121.069 117.373 120.32 119.339 120.041 121.397C119.762 123.455 119.961 125.549 120.624 127.517C120.646 127.583 120.688 127.639 120.744 127.68C120.8 127.72 120.867 127.742 120.936 127.742Z" fill="#3F3D56"/>
<path d="M139.235 118.039C139.43 118.358 139.511 118.733 139.464 119.103C139.418 119.474 139.248 119.818 138.98 120.078C138.342 120.791 137.325 120.836 136.441 120.704C135.45 120.555 134.399 120.091 133.395 120.404C132.54 120.671 131.929 121.446 131.041 121.641C130.253 121.814 129.31 121.585 129.034 120.745C128.901 120.342 129.537 120.169 129.669 120.57C129.848 121.114 130.62 121.103 131.062 120.952C131.77 120.711 132.316 120.124 133.013 119.844C133.843 119.587 134.732 119.589 135.561 119.851C136.349 120.028 137.256 120.291 138.041 119.96C138.621 119.715 139.084 118.942 138.666 118.372C138.415 118.029 138.986 117.7 139.235 118.039Z" fill="#2F2E41"/>
<path d="M131.999 146.193C129.675 146.195 127.363 145.87 125.13 145.227C124.867 145.154 124.592 145.07 124.315 144.979C122.759 144.473 121.257 143.813 119.831 143.01C119.564 142.86 119.295 142.702 119.011 142.527C117.602 141.66 116.283 140.654 115.073 139.524C114.874 139.338 114.676 139.147 114.483 138.956C110.679 135.164 108.209 130.24 107.443 124.924C106.677 119.608 107.656 114.187 110.235 109.475C112.813 104.763 116.851 101.015 121.741 98.7942C126.631 96.5732 132.11 95.9989 137.355 97.1577C142.599 98.3166 147.326 101.146 150.825 105.221C154.324 109.295 156.407 114.396 156.76 119.755C157.113 125.115 155.717 130.444 152.782 134.942C149.848 139.441 145.533 142.865 140.486 144.702C140.395 144.735 140.301 144.769 140.207 144.802C137.569 145.726 134.794 146.196 131.999 146.193ZM131.999 97.8823C127.349 97.8825 122.803 99.2626 118.937 101.848C115.072 104.433 112.06 108.107 110.284 112.405C108.508 116.703 108.047 121.431 108.959 125.991C109.872 130.551 112.117 134.738 115.411 138.021C115.593 138.201 115.782 138.383 115.972 138.561C117.118 139.631 118.367 140.584 119.702 141.405C119.971 141.571 120.224 141.72 120.477 141.861C121.827 142.622 123.249 143.247 124.723 143.726C124.984 143.812 125.242 143.89 125.491 143.96C130.177 145.305 135.165 145.165 139.768 143.56L140.034 143.464C145.226 141.574 149.585 137.916 152.347 133.132C155.11 128.348 156.098 122.743 155.139 117.302C154.18 111.862 151.335 106.933 147.103 103.381C142.871 99.83 137.524 97.883 131.999 97.8823Z" fill="#CCCCCC"/>
<path d="M227.052 264.834H96.9967C95.3594 264.832 93.7896 264.181 92.6318 263.023C91.474 261.865 90.8228 260.295 90.8209 258.658V82.1022C90.8228 80.4648 91.474 78.895 92.6318 77.7372C93.7896 76.5794 95.3594 75.9282 96.9967 75.9263H227.052C228.69 75.9282 230.259 76.5794 231.417 77.7372C232.575 78.895 233.226 80.4648 233.228 82.1022V258.658C233.226 260.295 232.575 261.865 231.417 263.023C230.259 264.181 228.69 264.832 227.052 264.834ZM96.9967 76.6529C95.552 76.6545 94.1669 77.2292 93.1453 78.2508C92.1238 79.2724 91.5491 80.6574 91.5475 82.1022V258.658C91.5491 260.103 92.1238 261.488 93.1453 262.509C94.1669 263.531 95.552 264.106 96.9967 264.107H227.052C228.497 264.106 229.882 263.531 230.904 262.509C231.925 261.488 232.5 260.103 232.502 258.658V82.1022C232.5 80.6574 231.925 79.2724 230.904 78.2508C229.882 77.2292 228.497 76.6545 227.052 76.6529H96.9967Z" fill="#3F3D56"/>
<path d="M201.875 121.781H165.074C164.302 121.781 163.561 121.475 163.015 120.929C162.469 120.383 162.162 119.642 162.162 118.87C162.162 118.098 162.469 117.357 163.015 116.811C163.561 116.265 164.302 115.959 165.074 115.959H201.875C202.647 115.959 203.388 116.265 203.934 116.811C204.48 117.357 204.787 118.098 204.787 118.87C204.787 119.642 204.48 120.383 203.934 120.929C203.388 121.475 202.647 121.781 201.875 121.781Z" fill="#6C63FF"/>
<path d="M213.885 131.607H165.074C164.302 131.607 163.561 131.301 163.015 130.755C162.469 130.209 162.162 129.468 162.162 128.696C162.162 127.924 162.469 127.183 163.015 126.637C163.561 126.091 164.302 125.785 165.074 125.785H213.885C214.657 125.785 215.397 126.091 215.943 126.637C216.489 127.183 216.796 127.924 216.796 128.696C216.796 129.468 216.489 130.209 215.943 130.755C215.397 131.301 214.657 131.607 213.885 131.607Z" fill="#6C63FF"/>
<path d="M201.822 169.294H110.164C109.392 169.294 108.652 168.987 108.106 168.441C107.56 167.895 107.253 167.155 107.253 166.383C107.253 165.611 107.56 164.87 108.106 164.324C108.652 163.778 109.392 163.471 110.164 163.471H201.822C202.594 163.471 203.334 163.778 203.88 164.324C204.426 164.87 204.733 165.611 204.733 166.383C204.733 167.155 204.426 167.895 203.88 168.441C203.334 168.987 202.594 169.294 201.822 169.294Z" fill="#CCCCCC"/>
<path d="M213.831 179.12H110.164C109.392 179.12 108.652 178.813 108.106 178.267C107.56 177.721 107.253 176.981 107.253 176.209C107.253 175.437 107.56 174.696 108.106 174.15C108.652 173.604 109.392 173.297 110.164 173.297H213.831C214.603 173.297 215.344 173.604 215.89 174.15C216.436 174.696 216.742 175.437 216.742 176.209C216.742 176.981 216.436 177.721 215.89 178.267C215.344 178.813 214.603 179.12 213.831 179.12Z" fill="#CCCCCC"/>
<path d="M201.822 201.704H110.164C109.393 201.703 108.653 201.396 108.108 200.85C107.563 200.304 107.257 199.564 107.257 198.792C107.257 198.021 107.563 197.281 108.108 196.735C108.653 196.189 109.393 195.882 110.164 195.881H201.822C202.594 195.881 203.334 196.188 203.88 196.734C204.426 197.28 204.733 198.02 204.733 198.792C204.733 199.565 204.426 200.305 203.88 200.851C203.334 201.397 202.594 201.704 201.822 201.704Z" fill="#CCCCCC"/>
<path d="M213.831 211.53H110.164C109.393 211.529 108.653 211.222 108.108 210.676C107.563 210.13 107.257 209.39 107.257 208.618C107.257 207.847 107.563 207.107 108.108 206.561C108.653 206.015 109.393 205.708 110.164 205.707H213.831C214.603 205.707 215.344 206.014 215.89 206.56C216.436 207.106 216.742 207.846 216.742 208.618C216.742 209.391 216.436 210.131 215.89 210.677C215.344 211.223 214.603 211.53 213.831 211.53Z" fill="#CCCCCC"/>
<path d="M201.822 234.114H110.164C109.392 234.114 108.652 233.807 108.106 233.261C107.56 232.715 107.253 231.974 107.253 231.202C107.253 230.43 107.56 229.69 108.106 229.144C108.652 228.598 109.392 228.291 110.164 228.291H201.822C202.594 228.291 203.334 228.598 203.88 229.144C204.426 229.69 204.733 230.43 204.733 231.202C204.733 231.974 204.426 232.715 203.88 233.261C203.334 233.807 202.594 234.114 201.822 234.114Z" fill="#CCCCCC"/>
<path d="M213.831 243.94H110.164C109.392 243.94 108.652 243.633 108.106 243.087C107.56 242.541 107.253 241.8 107.253 241.028C107.253 240.256 107.56 239.516 108.106 238.97C108.652 238.424 109.392 238.117 110.164 238.117H213.831C214.603 238.117 215.344 238.424 215.89 238.97C216.436 239.516 216.742 240.256 216.742 241.028C216.742 241.8 216.436 242.541 215.89 243.087C215.344 243.633 214.603 243.94 213.831 243.94Z" fill="#CCCCCC"/>
<path d="M225.543 224.631C221.774 224.626 218.04 225.365 214.556 226.805C211.072 228.245 207.906 230.357 205.239 233.021C202.572 235.685 200.457 238.848 199.013 242.331C197.57 245.813 196.827 249.546 196.827 253.315C196.827 257.085 197.57 260.817 199.013 264.3C200.457 267.782 202.572 270.946 205.239 273.61C207.906 276.274 211.072 278.386 214.556 279.826C218.04 281.265 221.773 282.004 225.543 282C233.142 281.987 240.425 278.958 245.794 273.581C251.162 268.203 254.177 260.914 254.177 253.315C254.177 245.716 251.162 238.428 245.794 233.05C240.425 227.672 233.142 224.644 225.543 224.631Z" fill="#6C63FF"/>
<path d="M222.822 265.228C222.066 265.23 221.331 264.985 220.727 264.532L220.69 264.504L212.801 258.47C212.064 257.904 211.582 257.068 211.461 256.147C211.34 255.226 211.589 254.294 212.155 253.557C212.72 252.819 213.555 252.337 214.476 252.215C215.397 252.092 216.329 252.341 217.067 252.906L222.176 256.824L234.25 241.072C234.53 240.707 234.879 240.401 235.278 240.17C235.676 239.94 236.116 239.791 236.572 239.73C237.028 239.67 237.492 239.7 237.937 239.819C238.381 239.938 238.798 240.143 239.163 240.423L239.164 240.424L239.089 240.528L239.166 240.424C239.903 240.99 240.385 241.826 240.506 242.747C240.628 243.668 240.379 244.6 239.814 245.338L225.613 263.857C225.284 264.284 224.862 264.629 224.378 264.866C223.895 265.103 223.363 265.226 222.825 265.224L222.822 265.228Z" fill="white"/>
</g>
<defs>
<clipPath id="clip0_10_26">
<rect width="311.698" height="282" fill="white"/>
</clipPath>
</defs>
</svg>
